<svg width="26" height="26" viewBox="0 0 26 26" fill="none" xmlns="http://www.w3.org/2000/svg">
<g clip-path="url(#clip0_237_22161)">
<rect width="26" height="26" rx="5" fill="#353F9A"/>
<path d="M23.6894 20.5206L20.1272 17.6606C21.2059 16.535 22.1177 15.1724 22.7858 13.6141C22.8513 13.458 22.9051 13.189 22.9051 13.0146C22.9051 12.8394 22.8514 12.5709 22.7858 12.4149C20.9215 8.06763 17.2287 5.12696 13.0029 5.12696C10.8474 5.12696 8.8356 5.90034 7.13017 7.22734L3.33454 4.18017C3.18325 4.05913 3.00377 4 2.82635 4C2.58153 4 2.33841 4.11122 2.17618 4.32361C1.89468 4.69129 1.95716 5.22272 2.31606 5.51045L22.6403 21.8197C23.0014 22.1086 23.5195 22.0428 23.7987 21.6763C24.1123 21.3411 24.047 20.8094 23.6894 20.5206ZM17.9232 13.0157C17.9232 13.8909 17.693 14.7065 17.3064 15.4211L15.9809 14.3568C16.161 13.9451 16.2729 13.4968 16.2729 13.0157C16.2729 11.1809 14.7944 9.63482 13.003 9.63482C12.9239 9.63592 12.8113 9.65046 12.7121 9.66188C12.8929 9.98699 13.0029 10.3603 13.0029 10.7618C13.0029 11.1199 12.9143 11.4535 12.7679 11.7525L9.69176 9.28264C10.5685 8.45855 11.7204 7.94437 13.0029 7.94437C15.7364 7.94437 17.9232 10.2159 17.9232 13.0157ZM3.26715 12.3149L13.8402 20.8657C14.3181 20.8213 14.7874 20.7386 15.2468 20.6213L3.74955 11.3217C3.57901 11.6457 3.41603 11.9733 3.26715 12.3149ZM12.0436 20.8481L3.29122 13.7694C5.03138 17.6996 8.27515 20.4149 12.0436 20.8481ZM4.31792 10.3462L16.5001 20.1966C16.8653 20.0459 17.2228 19.8755 17.5701 19.6803L4.9296 9.45873C4.71471 9.74399 4.51287 10.0398 4.31792 10.3462Z" fill="white"/>
</g>
<defs>
<clipPath id="clip0_237_22161">
<rect width="26" height="26" fill="white"/>
</clipPath>
</defs>
</svg>
